<svg width="119" height="30" viewBox="0 0 119 30" fill="none" xmlns="http://www.w3.org/2000/svg">
<path d="M21.9942 1.61631C21.4142 0.618413 20.3391 0 19.1791 0H14.0156C12.8556 0 11.7805 0.618413 11.2005 1.61631L0.435004 20.1546C-0.145001 21.1525 -0.145001 22.3894 0.435004 23.3873L3.02381 27.8286C3.60382 28.8265 4.67895 29.4449 5.85311 29.4449H10.3234C11.4834 29.4449 12.5585 28.8265 13.1385 27.8286L14.5108 25.4674C14.822 24.9333 14.9776 24.3289 14.9776 23.7246V18.8757C14.9776 18.4962 14.539 18.2713 14.2278 18.4962L6.73019 23.6965C6.53214 23.8511 6.23506 23.7808 6.12189 23.57L5.24481 22.0661C5.10334 21.8272 5.14578 21.532 5.34383 21.3352L14.3268 12.8883C14.7512 12.4666 14.9917 11.8904 14.9917 11.3001V7.54745C14.9917 6.78849 15.5293 5.03163 16.2508 4.62404C16.4488 4.5116 16.7035 4.5116 16.8732 4.58188C17.6371 4.89108 18.2171 6.76038 18.2171 7.53339V11.286C18.2171 11.8763 18.4576 12.4526 18.882 12.8742L27.2001 21.3212C27.3982 21.518 27.4406 21.8131 27.2992 22.052L26.4221 23.5419C26.2948 23.7527 26.0118 23.8089 25.7996 23.6683L18.9669 18.4681C18.6557 18.2432 18.2171 18.454 18.2171 18.8475V23.6965C18.2171 24.3008 18.3727 24.9052 18.684 25.4393L20.0562 27.8005C20.6362 28.7984 21.7113 29.4168 22.8713 29.4168H27.3275C28.4875 29.4168 29.5768 28.7984 30.1568 27.8005L32.7597 23.3732C33.3397 22.3753 33.3539 21.1385 32.7739 20.1406L21.9942 1.61631Z" fill="#9ACBEF"/>
<path d="M47.2155 22.9727C47.2155 23.3703 47.146 23.7359 47.0069 24.0696C46.8678 24.4033 46.6741 24.6928 46.4258 24.9382C46.1824 25.1787 45.8919 25.3676 45.5541 25.505C45.2214 25.6424 44.8588 25.7111 44.4664 25.7111C44.074 25.7111 43.709 25.6424 43.3712 25.505C43.0384 25.3676 42.7479 25.1787 42.4996 24.9382C42.2562 24.6928 42.065 24.4033 41.9259 24.0696C41.7868 23.7359 41.7173 23.3703 41.7173 22.9727C41.7173 22.5752 41.7868 22.2096 41.9259 21.8759C42.065 21.5422 42.2562 21.2551 42.4996 21.0147C42.7479 20.7693 43.0384 20.5779 43.3712 20.4405C43.709 20.3031 44.074 20.2344 44.4664 20.2344C44.8588 20.2344 45.2214 20.3031 45.5541 20.4405C45.8919 20.5779 46.1824 20.7693 46.4258 21.0147C46.6741 21.2551 46.8678 21.5422 47.0069 21.8759C47.146 22.2096 47.2155 22.5752 47.2155 22.9727ZM46.6493 22.9727C46.6493 22.6685 46.5996 22.3789 46.5003 22.1041C46.401 21.8293 46.2569 21.5888 46.0682 21.3827C45.8794 21.1717 45.6485 21.0048 45.3753 20.8822C45.1071 20.7595 44.8041 20.6981 44.4664 20.6981C44.1287 20.6981 43.8232 20.7595 43.55 20.8822C43.2818 21.0048 43.0533 21.1717 42.8646 21.3827C42.6759 21.5888 42.5318 21.8293 42.4325 22.1041C42.3332 22.3789 42.2835 22.6685 42.2835 22.9727C42.2835 23.277 42.3332 23.5666 42.4325 23.8414C42.5318 24.1162 42.6759 24.3567 42.8646 24.5628C43.0533 24.7689 43.2818 24.9333 43.55 25.056C43.8232 25.1787 44.1287 25.24 44.4664 25.24C44.8041 25.24 45.1071 25.1787 45.3753 25.056C45.6485 24.9333 45.8794 24.7689 46.0682 24.5628C46.2569 24.3567 46.401 24.1162 46.5003 23.8414C46.5996 23.5666 46.6493 23.277 46.6493 22.9727Z" fill="#9ACBEF"/>
<path d="M61.0103 24.8057H61.0252V20.3669H61.5616V25.5786H60.8911L57.8217 21.0956H57.8068V25.5786H57.2703V20.3669H57.9409L61.0103 24.8057Z" fill="#9ACBEF"/>
<path d="M72.4364 25.1075H74.895V25.5786H71.9V20.3669H72.4364V25.1075Z" fill="#9ACBEF"/>
<path d="M85.1745 25.5786H84.6381V20.3669H85.1745V25.5786Z" fill="#9ACBEF"/>
<path d="M96.05 25.5786H95.5136V20.3669H98.6948V20.838H96.05V22.6489H98.5086V23.1126H96.05V25.5786Z" fill="#9ACBEF"/>
<path d="M109.174 25.1075H111.997V25.5786H108.637V20.3669H111.908V20.838H109.174V22.6341H111.729V23.0979H109.174V25.1075Z" fill="#9ACBEF"/>
<path d="M48.5866 9.71536C48.5866 10.5219 48.4457 11.2612 48.1639 11.9333C47.882 12.5958 47.4885 13.1671 46.9832 13.6472C46.4876 14.1177 45.8948 14.4826 45.2048 14.7418C44.5149 15.001 43.7666 15.1307 42.9601 15.1307C42.1535 15.1307 41.4053 15.001 40.7153 14.7418C40.0351 14.4826 39.4423 14.1177 38.937 13.6472C38.4414 13.1671 38.0527 12.5958 37.7709 11.9333C37.4891 11.2612 37.3481 10.5219 37.3481 9.71536C37.3481 8.89922 37.4891 8.1647 37.7709 7.51179C38.0527 6.84928 38.4414 6.28759 38.937 5.82671C39.4423 5.36584 40.0351 5.01058 40.7153 4.76094C41.4053 4.5113 42.1535 4.38647 42.9601 4.38647C43.7666 4.38647 44.5149 4.5113 45.2048 4.76094C45.8948 5.01058 46.4876 5.36584 46.9832 5.82671C47.4885 6.28759 47.882 6.84928 48.1639 7.51179C48.4457 8.1647 48.5866 8.89922 48.5866 9.71536ZM45.9191 9.71536C45.9191 9.27369 45.8462 8.86082 45.7004 8.47675C45.5547 8.09269 45.3506 7.76624 45.0882 7.49739C44.8356 7.21895 44.5246 7.00291 44.1553 6.84928C43.7958 6.68606 43.3974 6.60444 42.9601 6.60444C42.5228 6.60444 42.1244 6.68606 41.7648 6.84928C41.4053 7.00291 41.0943 7.21895 40.8319 7.49739C40.5695 7.76624 40.3655 8.09269 40.2197 8.47675C40.0837 8.86082 40.0156 9.27369 40.0156 9.71536C40.0156 10.1762 40.0885 10.6035 40.2343 10.9972C40.38 11.3812 40.5793 11.7125 40.8319 11.9909C41.0943 12.2694 41.4053 12.4902 41.7648 12.6534C42.1244 12.8071 42.5228 12.8839 42.9601 12.8839C43.3974 12.8839 43.7958 12.8071 44.1553 12.6534C44.5149 12.4902 44.8259 12.2694 45.0882 11.9909C45.3506 11.7125 45.5547 11.3812 45.7004 10.9972C45.8462 10.6035 45.9191 10.1762 45.9191 9.71536Z" fill="#9ACBEF"/>
<path d="M57.6617 14.857L53.5074 8.18871H53.4636L53.5219 14.857H51.1023V4.66012H53.9447L58.0844 11.314H58.1281L58.0698 4.66012H60.4895V14.857H57.6617Z" fill="#9ACBEF"/>
<path d="M65.9562 6.76287V8.86562H69.9502V10.8964H65.9562V14.857H63.4928V4.66012H70.2854V6.76287H65.9562Z" fill="#9ACBEF"/>
<path d="M72.7659 14.857V4.66012H75.2731V12.7111H79.267V14.857H72.7659Z" fill="#9ACBEF"/>
<path d="M81.3131 14.857V4.66012H83.8202V14.857H81.3131Z" fill="#9ACBEF"/>
<path d="M95.9968 14.2377C95.4914 14.497 94.8987 14.7082 94.2184 14.8714C93.5479 15.0346 92.8142 15.1163 92.0174 15.1163C91.1914 15.1163 90.4286 14.9866 89.7289 14.7274C89.0389 14.4682 88.4413 14.1033 87.936 13.6328C87.4404 13.1623 87.0517 12.6006 86.7699 11.9477C86.4881 11.2852 86.3472 10.5507 86.3472 9.74416C86.3472 8.92803 86.4881 8.18871 86.7699 7.5262C87.0614 6.86369 87.4598 6.30199 87.9651 5.84112C88.4705 5.37064 89.0632 5.01058 89.7435 4.76094C90.4237 4.5113 91.1574 4.38647 91.9445 4.38647C92.7608 4.38647 93.5188 4.5113 94.2184 4.76094C94.9181 5.00098 95.4866 5.32743 95.9239 5.7403L94.3496 7.51179C94.1067 7.23335 93.786 7.00771 93.3876 6.83488C92.9892 6.65245 92.5373 6.56124 92.032 6.56124C91.5947 6.56124 91.1914 6.64285 90.8221 6.80608C90.4529 6.9597 90.1322 7.18054 89.8601 7.46859C89.588 7.74703 89.3742 8.08309 89.2187 8.47675C89.0729 8.86082 89.0001 9.28329 89.0001 9.74416C89.0001 10.2146 89.0681 10.6467 89.2041 11.0404C89.3402 11.434 89.5394 11.7749 89.8018 12.063C90.0739 12.3414 90.4043 12.5622 90.793 12.7255C91.1914 12.8791 91.6433 12.9559 92.1486 12.9559C92.4401 12.9559 92.7171 12.9367 92.9794 12.8983C93.2418 12.8503 93.4847 12.7783 93.7083 12.6823V10.8243H91.7404V8.83681H95.9968V14.2377Z" fill="#9ACBEF"/>
<path d="M105.421 14.857V10.5939H101.398V14.857H98.9056V4.66012H101.398V8.51996H105.421V4.66012H107.914V14.857H105.421Z" fill="#9ACBEF"/>
<path d="M115.328 6.76287V14.857H112.836V6.76287H109.921V4.66012H118.244V6.76287H115.328Z" fill="#9ACBEF"/>
</svg>
