<svg width="72" height="72" viewBox="0 0 72 72" fill="none" xmlns="http://www.w3.org/2000/svg">
<rect width="72" height="72" rx="36" fill="#00AFFF" fill-opacity="0.1"/>
<path d="M36 36V24" stroke="#00AFFF" stroke-width="2" stroke-linecap="round" stroke-linejoin="round"/>
<path d="M46.3923 30L25.6077 42" stroke="#00AFFF" stroke-width="2" stroke-linecap="round" stroke-linejoin="round"/>
<path d="M24.2001 38.1938C23.6805 35.3821 24.1804 32.4772 25.61 30.0009C27.0395 27.5246 29.3051 25.639 31.9998 24.6829V33.6906L24.2001 38.1938Z" stroke="#00AFFF" stroke-width="2" stroke-linecap="round" stroke-linejoin="round"/>
<path d="M36 24C38.1024 24.0004 40.1679 24.5531 41.9895 25.6029C43.811 26.6526 45.3249 28.1625 46.3793 29.9814C47.4338 31.8003 47.9919 33.8643 47.9978 35.9667C48.0036 38.0691 47.457 40.1361 46.4126 41.9608C45.3683 43.7855 43.8629 45.3038 42.0471 46.3637C40.2314 47.4235 38.1691 47.9877 36.0667 47.9998C33.9643 48.0119 31.8956 47.4714 30.0679 46.4324C28.2401 45.3935 26.7173 43.8926 25.6521 42.08" stroke="#00AFFF" stroke-width="2" stroke-linecap="round" stroke-linejoin="round"/>
</svg>
