<svg width="30" height="16" viewBox="0 0 30 16" fill="none" xmlns="http://www.w3.org/2000/svg">
<path d="M30 0H0V16H30V0Z" fill="#B22234"/>
<path d="M0 1.8461H30H0ZM30 4.30764H0H30ZM0 6.76918H30H0ZM30 9.23072H0H30ZM0 11.6923H30H0ZM30 14.1538H0Z" fill="black"/>
<path d="M30 14.7693H0V13.5385H30V14.7693ZM30 12.3077H0V11.077H30V12.3077ZM30 9.84621H0V8.61544H30V9.84621ZM30 7.38467H0V6.1539H30V7.38467ZM30 4.92313H0V3.69236H30V4.92313ZM30 2.46159H0V1.23082H30V2.46159Z" fill="white"/>
<path d="M12 0H0V8.61538H12V0Z" fill="#3C3B6E"/>
<path d="M1.00059 0.369171L1.28723 1.26025L0.536621 0.708863H1.4597L0.713949 1.26025L1.00059 0.369171Z" fill="white"/>
<path d="M1.00059 2.09238L1.28723 2.98345L0.536621 2.43207H1.4597L0.71152 2.98345L1.00059 2.09238Z" fill="white"/>
<path d="M1.0006 3.81546L1.28724 4.70654L0.539062 4.15515H1.46214L0.713961 4.70654L1.0006 3.81546Z" fill="white"/>
<path d="M1.0006 5.53845L1.28724 6.42953L0.539062 5.87814H1.46214L0.713961 6.42953L1.0006 5.53845Z" fill="white"/>
<path d="M1.0006 7.26154L1.28724 8.15261L0.539062 7.60123H1.46214L0.713961 8.15261L1.0006 7.26154Z" fill="white"/>
<path d="M1.99914 1.23082L2.28578 2.1219L1.5376 1.57051H2.46068L1.71493 2.1219L1.99914 1.23082Z" fill="white"/>
<path d="M1.99914 2.9539L2.28578 3.84498L1.5376 3.2936H2.46068L1.7125 3.84498L1.99914 2.9539Z" fill="white"/>
<path d="M1.99914 4.67691L2.28578 5.56799L1.5376 5.0166H2.46068L1.7125 5.56799L1.99914 4.67691Z" fill="white"/>
<path d="M1.99914 6.39999L2.28578 7.29107L1.5376 6.73969H2.46068L1.7125 7.29107L1.99914 6.39999Z" fill="white"/>
<path d="M3.00011 0.369171L3.28675 1.26025L2.53857 0.708863H3.46165L2.71347 1.26025L3.00011 0.369171Z" fill="white"/>
<path d="M3.00011 2.09238L3.28675 2.98345L2.53857 2.43207H3.46165L2.71347 2.98345L3.00011 2.09238Z" fill="white"/>
<path d="M3.00011 3.81546L3.28675 4.70654L2.53857 4.15515H3.46165L2.71347 4.70654L3.00011 3.81546Z" fill="white"/>
<path d="M3.00011 5.53845L3.28675 6.42953L2.53857 5.87814H3.46165L2.71347 6.42953L3.00011 5.53845Z" fill="white"/>
<path d="M3.00011 7.26154L3.28675 8.15261L2.53857 7.60123H3.46165L2.71347 8.15261L3.00011 7.26154Z" fill="white"/>
<path d="M4.00109 1.23082L4.28773 2.1219L3.53955 1.57051H4.46263L3.71445 2.1219L4.00109 1.23082Z" fill="white"/>
<path d="M4.00109 2.9539L4.28773 3.84498L3.53955 3.2936H4.46263L3.71445 3.84498L4.00109 2.9539Z" fill="white"/>
<path d="M4.00109 4.67691L4.28773 5.56799L3.53955 5.0166H4.46263L3.71445 5.56799L4.00109 4.67691Z" fill="white"/>
<path d="M4.00109 6.39999L4.28773 7.29107L3.53955 6.73969H4.46263L3.71445 7.29107L4.00109 6.39999Z" fill="white"/>
<path d="M4.99962 0.369171L5.28626 1.26025L4.53809 0.708863H5.46116L4.71298 1.26025L4.99962 0.369171Z" fill="white"/>
<path d="M4.99962 2.09238L5.28626 2.98345L4.53809 2.43207H5.46116L4.71298 2.98345L4.99962 2.09238Z" fill="white"/>
<path d="M4.99962 3.81546L5.28626 4.70654L4.53809 4.15515H5.46116L4.71298 4.70654L4.99962 3.81546Z" fill="white"/>
<path d="M4.99962 5.53845L5.28626 6.42953L4.53809 5.87814H5.46116L4.71298 6.42953L4.99962 5.53845Z" fill="white"/>
<path d="M4.99962 7.26154L5.28626 8.15261L4.53809 7.60123H5.46116L4.71298 8.15261L4.99962 7.26154Z" fill="white"/>
<path d="M5.99962 1.23082L6.28626 2.1219L5.53809 1.57051H6.46116L5.71298 2.1219L5.99962 1.23082Z" fill="white"/>
<path d="M5.99962 2.9539L6.28626 3.84498L5.53809 3.2936H6.46116L5.71298 3.84498L5.99962 2.9539Z" fill="white"/>
<path d="M5.99962 4.67691L6.28626 5.56799L5.53809 5.0166H6.46116L5.71298 5.56799L5.99962 4.67691Z" fill="white"/>
<path d="M5.99962 6.39999L6.28626 7.29107L5.53809 6.73969H6.46116L5.71298 7.29107L5.99962 6.39999Z" fill="white"/>
<path d="M7.00109 0.369171L7.28773 1.26025L6.53955 0.708863H7.46263L6.71445 1.26025L7.00109 0.369171Z" fill="white"/>
<path d="M7.00109 2.09238L7.28773 2.98345L6.53955 2.43207H7.46263L6.71445 2.98345L7.00109 2.09238Z" fill="white"/>
<path d="M7.00109 3.81546L7.28773 4.70654L6.53955 4.15515H7.46263L6.71445 4.70654L7.00109 3.81546Z" fill="white"/>
<path d="M7.00109 5.53845L7.28773 6.42953L6.53955 5.87814H7.46263L6.71445 6.42953L7.00109 5.53845Z" fill="white"/>
<path d="M7.00109 7.26154L7.28773 8.15261L6.53955 7.60123H7.46263L6.71445 8.15261L7.00109 7.26154Z" fill="white"/>
<path d="M7.99914 1.23082L8.28578 2.1219L7.5376 1.57051H8.46068L7.7125 2.1219L7.99914 1.23082Z" fill="white"/>
<path d="M7.99914 2.9539L8.28578 3.84498L7.5376 3.2936H8.46068L7.7125 3.84498L7.99914 2.9539Z" fill="white"/>
<path d="M7.99914 4.67691L8.28578 5.56799L7.5376 5.0166H8.46068L7.7125 5.56799L7.99914 4.67691Z" fill="white"/>
<path d="M7.99914 6.39999L8.28578 7.29107L7.5376 6.73969H8.46068L7.7125 7.29107L7.99914 6.39999Z" fill="white"/>
<path d="M8.99963 0.369171L9.28627 1.26025L8.53809 0.708863H9.46117L8.71299 1.26025L8.99963 0.369171Z" fill="white"/>
<path d="M8.99963 2.09238L9.28627 2.98345L8.53809 2.43207H9.46117L8.71299 2.98345L8.99963 2.09238Z" fill="white"/>
<path d="M8.99963 3.81546L9.28627 4.70654L8.53809 4.15515H9.46117L8.71299 4.70654L8.99963 3.81546Z" fill="white"/>
<path d="M8.99963 5.53845L9.28627 6.42953L8.53809 5.87814H9.46117L8.71299 6.42953L8.99963 5.53845Z" fill="white"/>
<path d="M8.99963 7.26154L9.28627 8.15261L8.53809 7.60123H9.46117L8.71299 8.15261L8.99963 7.26154Z" fill="white"/>
<path d="M10.0006 1.23082L10.2872 2.1219L9.53906 1.57051H10.4621L9.71396 2.1219L10.0006 1.23082Z" fill="white"/>
<path d="M10.0006 2.9539L10.2872 3.84498L9.53906 3.2936H10.4621L9.71396 3.84498L10.0006 2.9539Z" fill="white"/>
<path d="M10.0006 4.67691L10.2872 5.56799L9.53906 5.0166H10.4621L9.71396 5.56799L10.0006 4.67691Z" fill="white"/>
<path d="M10.0006 6.39999L10.2872 7.29107L9.53906 6.73969H10.4621L9.71396 7.29107L10.0006 6.39999Z" fill="white"/>
<path d="M10.9991 0.369171L11.2858 1.26025L10.5376 0.708863H11.4607L10.7125 1.26025L10.9991 0.369171Z" fill="white"/>
<path d="M10.9991 2.09238L11.2858 2.98345L10.5376 2.43207H11.4607L10.7125 2.98345L10.9991 2.09238Z" fill="white"/>
<path d="M10.9991 3.81546L11.2858 4.70654L10.5376 4.15515H11.4607L10.7125 4.70654L10.9991 3.81546Z" fill="white"/>
<path d="M10.9991 5.53845L11.2858 6.42953L10.5376 5.87814H11.4607L10.7125 6.42953L10.9991 5.53845Z" fill="white"/>
<path d="M10.9991 7.26154L11.2858 8.15261L10.5376 7.60123H11.4607L10.7125 8.15261L10.9991 7.26154Z" fill="white"/>
</svg>
