<svg width="72" height="72" viewBox="0 0 72 72" fill="none" xmlns="http://www.w3.org/2000/svg">
<rect width="72" height="72" rx="36" fill="#00AFFF" fill-opacity="0.1"/>
<path d="M33.3284 39.0166L32.2426 40.2426C31.4035 41.0818 30.3344 41.6532 29.1705 41.8847C28.0067 42.1162 26.8003 41.9974 25.7039 41.5433C24.6075 41.0892 23.6705 40.3201 23.0112 39.3334C22.3519 38.3467 22 37.1867 22 36C22 34.8133 22.3519 33.6533 23.0112 32.6666C23.6705 31.6799 24.6075 30.9109 25.7039 30.4567C26.8003 30.0026 28.0067 29.8838 29.1705 30.1153C30.3344 30.3468 31.4035 30.9182 32.2426 31.7574L39.7574 40.2426C40.5965 41.0818 41.6656 41.6532 42.8295 41.8847C43.9933 42.1162 45.1997 41.9974 46.2961 41.5433C47.3925 41.0892 48.3295 40.3201 48.9888 39.3334C49.6481 38.3467 50 37.1867 50 36C50 34.8133 49.6481 33.6533 48.9888 32.6666C48.3295 31.6799 47.3925 30.9109 46.2961 30.4567C45.1997 30.0026 43.9933 29.8838 42.8295 30.1153C41.6656 30.3468 40.5965 30.9182 39.7574 31.7574L38.6716 32.9834" stroke="#00AFFF" stroke-width="2" stroke-linecap="round" stroke-linejoin="round"/>
</svg>
