<svg width="33" height="32" viewBox="0 0 33 32" fill="none" xmlns="http://www.w3.org/2000/svg">
<path d="M30.8573 15.2231L27.7676 16.7679L23.7676 9.10768L26.8887 7.5471C27.1232 7.42986 27.3944 7.40939 27.6438 7.4901C27.8933 7.57082 28.101 7.74626 28.2224 7.97866L31.2965 13.8658C31.358 13.9835 31.3954 14.1123 31.4065 14.2446C31.4177 14.377 31.4024 14.5102 31.3615 14.6365C31.3206 14.7629 31.255 14.8798 31.1684 14.9805C31.0818 15.0812 30.9761 15.1637 30.8573 15.2231V15.2231Z" stroke="#00AFFF" stroke-width="2" stroke-linecap="round" stroke-linejoin="round"/>
<path d="M5.76749 16.634L2.67779 15.0891C2.55901 15.0297 2.45324 14.9473 2.36667 14.8466C2.2801 14.7459 2.21446 14.6289 2.17357 14.5026C2.13269 14.3762 2.11738 14.243 2.12854 14.1107C2.1397 13.9783 2.1771 13.8495 2.23857 13.7318L5.31269 7.84469C5.43404 7.6123 5.6418 7.43685 5.89124 7.35613C6.14068 7.27541 6.41184 7.29588 6.64633 7.41313L9.76749 8.97371L5.76749 16.634Z" stroke="#00AFFF" stroke-width="2" stroke-linecap="round" stroke-linejoin="round"/>
<path d="M27.7676 16.7679L25.7676 19.1077L21.1679 23.7073C21.0458 23.8294 20.8942 23.9178 20.7278 23.9639C20.5613 24.01 20.3858 24.0123 20.2183 23.9704L12.9737 22.1592C12.8378 22.1252 12.7106 22.0631 12.6002 21.9768L5.76758 16.634" stroke="#00AFFF" stroke-width="2" stroke-linecap="round" stroke-linejoin="round"/>
<path d="M25.7676 19.1077L20.2676 15.1077L18.6676 16.3077C17.9752 16.827 17.1331 17.1077 16.2676 17.1077C15.4022 17.1077 14.56 16.827 13.8676 16.3077L13.19 15.7995C13.0754 15.7135 12.9806 15.6039 12.912 15.4781C12.8435 15.3523 12.8027 15.2133 12.7926 15.0704C12.7824 14.9274 12.8031 14.784 12.8532 14.6498C12.9033 14.5156 12.9816 14.3937 13.0829 14.2924L17.9747 9.40056C18.0676 9.3077 18.1778 9.23404 18.2992 9.18379C18.4205 9.13353 18.5505 9.10767 18.6818 9.10767H23.7676" stroke="#00AFFF" stroke-width="2" stroke-linecap="round" stroke-linejoin="round"/>
<path d="M9.83936 8.97369L16.2544 7.1035C16.4835 7.0367 16.729 7.05406 16.9465 7.15246L21.2676 9.10767" stroke="#00AFFF" stroke-width="2" stroke-linecap="round" stroke-linejoin="round"/>
<path d="M14.7676 26.6077L11.0001 25.6658C10.8473 25.6276 10.7056 25.5538 10.5866 25.4504L7.76758 23" stroke="#00AFFF" stroke-width="2" stroke-linecap="round" stroke-linejoin="round"/>
</svg>
