<svg width="129" height="32" viewBox="0 0 129 32" fill="none" xmlns="http://www.w3.org/2000/svg">
<path d="M23.9028 1.75656C23.2725 0.672076 22.1041 0 20.8434 0H15.2318C13.9712 0 12.8027 0.672076 12.1724 1.75656L0.472752 21.9036C-0.157584 22.9881 -0.157584 24.3322 0.472752 25.4167L3.28621 30.2434C3.91654 31.3279 5.08497 32 6.36102 32H11.2192C12.4799 32 13.6483 31.3279 14.2787 30.2434L15.7699 27.6773C16.1082 27.0969 16.2773 26.4401 16.2773 25.7833V20.5136C16.2773 20.1012 15.8007 19.8568 15.4625 20.1012L7.31421 25.7527C7.09897 25.9208 6.77612 25.8444 6.65312 25.6153L5.69993 23.9809C5.54619 23.7212 5.59231 23.4005 5.80755 23.1866L15.5701 14.0067C16.0313 13.5484 16.2927 12.9222 16.2927 12.2807V8.20239C16.2927 7.37757 16.8769 5.46826 17.6609 5.0253C17.8762 4.9031 18.1529 4.9031 18.3374 4.97947C19.1676 5.31551 19.7979 7.34702 19.7979 8.18711V12.2654C19.7979 12.9069 20.0593 13.5332 20.5205 13.9914L29.5605 23.1714C29.7757 23.3852 29.8218 23.706 29.6681 23.9656L28.7149 25.5847C28.5765 25.8138 28.2691 25.8749 28.0384 25.7222L20.6128 20.0706C20.2745 19.8263 19.7979 20.0554 19.7979 20.4831V25.7527C19.7979 26.4095 19.9671 27.0663 20.3053 27.6468L21.7966 30.2129C22.4269 31.2974 23.5953 31.9695 24.856 31.9695H29.6988C30.9595 31.9695 32.1433 31.2974 32.7736 30.2129L35.6025 25.4014C36.2328 24.3169 36.2482 22.9728 35.6179 21.8883L23.9028 1.75656Z" fill="#00AFFF"/>
<path d="M51.3132 24.9663C51.3132 25.3983 51.2377 25.7957 51.0865 26.1583C50.9354 26.521 50.7249 26.8357 50.455 27.1023C50.1905 27.3637 49.8747 27.569 49.5077 27.7183C49.146 27.8677 48.752 27.9423 48.3256 27.9423C47.8991 27.9423 47.5024 27.8677 47.1354 27.7183C46.7737 27.569 46.4579 27.3637 46.188 27.1023C45.9236 26.8357 45.7157 26.521 45.5646 26.1583C45.4135 25.7957 45.3379 25.3983 45.3379 24.9663C45.3379 24.5343 45.4135 24.137 45.5646 23.7743C45.7157 23.4117 45.9236 23.0997 46.188 22.8383C46.4579 22.5717 46.7737 22.3637 47.1354 22.2143C47.5024 22.065 47.8991 21.9903 48.3256 21.9903C48.752 21.9903 49.146 22.065 49.5077 22.2143C49.8747 22.3637 50.1905 22.5717 50.455 22.8383C50.7249 23.0997 50.9354 23.4117 51.0865 23.7743C51.2377 24.137 51.3132 24.5343 51.3132 24.9663ZM50.6979 24.9663C50.6979 24.6357 50.6439 24.321 50.536 24.0223C50.428 23.7237 50.2715 23.4623 50.0663 23.2383C49.8612 23.009 49.6102 22.8277 49.3134 22.6943C49.0219 22.561 48.6926 22.4943 48.3256 22.4943C47.9585 22.4943 47.6266 22.561 47.3297 22.6943C47.0382 22.8277 46.7899 23.009 46.5848 23.2383C46.3797 23.4623 46.2231 23.7237 46.1152 24.0223C46.0072 24.321 45.9532 24.6357 45.9532 24.9663C45.9532 25.297 46.0072 25.6117 46.1152 25.9103C46.2231 26.209 46.3797 26.4703 46.5848 26.6943C46.7899 26.9183 47.0382 27.097 47.3297 27.2303C47.6266 27.3637 47.9585 27.4303 48.3256 27.4303C48.6926 27.4303 49.0219 27.3637 49.3134 27.2303C49.6102 27.097 49.8612 26.9183 50.0663 26.6943C50.2715 26.4703 50.428 26.209 50.536 25.9103C50.6439 25.6117 50.6979 25.297 50.6979 24.9663Z" fill="#333333"/>
<path d="M66.3051 26.9583H66.3213V22.1343H66.9043V27.7983H66.1756L62.8397 22.9263H62.8235V27.7983H62.2406V22.1343H62.9693L66.3051 26.9583Z" fill="#333333"/>
<path d="M78.7227 27.2863H81.3946V27.7983H78.1398V22.1343H78.7227V27.2863Z" fill="#333333"/>
<path d="M92.5662 27.7983H91.9832V22.1343H92.5662V27.7983Z" fill="#333333"/>
<path d="M104.385 27.7983H103.802V22.1343H107.26V22.6463H104.385V24.6143H107.057V25.1183H104.385V27.7983Z" fill="#333333"/>
<path d="M118.648 27.2863H121.717V27.7983H118.065V22.1343H121.619V22.6463H118.648V24.5983H121.425V25.1023H118.648V27.2863Z" fill="#333333"/>
<path d="M52.8035 10.5583C52.8035 11.4349 52.6504 12.2383 52.3441 12.9688C52.0378 13.6888 51.6101 14.3096 51.061 14.8314C50.5223 15.3427 49.8781 15.7392 49.1283 16.0209C48.3785 16.3027 47.5653 16.4436 46.6888 16.4436C45.8122 16.4436 44.999 16.3027 44.2492 16.0209C43.5099 15.7392 42.8657 15.3427 42.3165 14.8314C41.7779 14.3096 41.3555 13.6888 41.0492 12.9688C40.743 12.2383 40.5898 11.4349 40.5898 10.5583C40.5898 9.67138 40.743 8.87312 41.0492 8.16355C41.3555 7.44355 41.7779 6.83312 42.3165 6.33225C42.8657 5.83138 43.5099 5.44529 44.2492 5.17399C44.999 4.90268 45.8122 4.76703 46.6888 4.76703C47.5653 4.76703 48.3785 4.90268 49.1283 5.17399C49.8781 5.44529 50.5223 5.83138 51.061 6.33225C51.6101 6.83312 52.0378 7.44355 52.3441 8.16355C52.6504 8.87312 52.8035 9.67138 52.8035 10.5583ZM49.9045 10.5583C49.9045 10.0783 49.8253 9.62964 49.6669 9.21225C49.5085 8.79486 49.2867 8.44007 49.0016 8.1479C48.727 7.84529 48.3891 7.61051 47.9877 7.44355C47.597 7.26616 47.164 7.17746 46.6888 7.17746C46.2135 7.17746 45.7805 7.26616 45.3898 7.44355C44.999 7.61051 44.6611 7.84529 44.3759 8.1479C44.0908 8.44007 43.869 8.79486 43.7106 9.21225C43.5627 9.62964 43.4888 10.0783 43.4888 10.5583C43.4888 11.0592 43.568 11.5236 43.7264 11.9514C43.8848 12.3688 44.1013 12.7288 44.3759 13.0314C44.6611 13.334 44.999 13.574 45.3898 13.7514C45.7805 13.9183 46.2135 14.0018 46.6888 14.0018C47.164 14.0018 47.597 13.9183 47.9877 13.7514C48.3785 13.574 48.7164 13.334 49.0016 13.0314C49.2867 12.7288 49.5085 12.3688 49.6669 11.9514C49.8253 11.5236 49.9045 11.0592 49.9045 10.5583Z" fill="#333333"/>
<path d="M62.6661 16.1462L58.1513 8.8992H58.1038L58.1671 16.1462H55.5375V5.06442H58.6265L63.1255 12.2957H63.173L63.1096 5.06442H65.7393V16.1462H62.6661Z" fill="#333333"/>
<path d="M71.6804 7.34964V9.63486H76.0209V11.8418H71.6804V16.1462H69.0032V5.06442H76.3853V7.34964H71.6804Z" fill="#333333"/>
<path d="M79.081 16.1462V5.06442H81.8057V13.814H86.1462V16.1462H79.081Z" fill="#333333"/>
<path d="M88.3699 16.1462V5.06442H91.0946V16.1462H88.3699Z" fill="#333333"/>
<path d="M104.328 15.4731C103.779 15.7549 103.134 15.9844 102.395 16.1618C101.666 16.3392 100.869 16.4279 100.003 16.4279C99.1054 16.4279 98.2764 16.287 97.516 16.0053C96.7662 15.7236 96.1167 15.327 95.5675 14.8157C95.0289 14.3044 94.6065 13.694 94.3002 12.9844C93.9939 12.2644 93.8408 11.4662 93.8408 10.5896C93.8408 9.70268 93.9939 8.8992 94.3002 8.1792C94.617 7.4592 95.05 6.84877 95.5992 6.3479C96.1483 5.83659 96.7926 5.44529 97.5318 5.17399C98.2711 4.90268 99.0684 4.76703 99.9239 4.76703C100.811 4.76703 101.635 4.90268 102.395 5.17399C103.155 5.43485 103.773 5.78964 104.249 6.23833L102.538 8.16355C102.274 7.86094 101.925 7.61572 101.492 7.4279C101.059 7.22964 100.568 7.13051 100.019 7.13051C99.5437 7.13051 99.1054 7.2192 98.7041 7.39659C98.3028 7.56355 97.9543 7.80355 97.6586 8.11659C97.3629 8.4192 97.1305 8.78442 96.9615 9.21225C96.8031 9.62964 96.7239 10.0888 96.7239 10.5896C96.7239 11.1009 96.7978 11.5705 96.9457 11.9983C97.0935 12.4262 97.31 12.7966 97.5952 13.1096C97.8909 13.4122 98.25 13.6522 98.6724 13.8296C99.1054 13.9966 99.5965 14.0801 100.146 14.0801C100.462 14.0801 100.763 14.0592 101.049 14.0175C101.334 13.9653 101.598 13.887 101.841 13.7827V11.7636H99.7021V9.60355H104.328V15.4731Z" fill="#333333"/>
<path d="M114.57 16.1462V11.5131H110.198V16.1462H107.489V5.06442H110.198V9.2592H114.57V5.06442H117.279V16.1462H114.57Z" fill="#333333"/>
<path d="M125.337 7.34964V16.1462H122.628V7.34964H119.46V5.06442H128.505V7.34964H125.337Z" fill="#333333"/>
</svg>
