<svg width="170" height="43" viewBox="0 0 170 43" fill="none" xmlns="http://www.w3.org/2000/svg">
<path d="M32.237 2.31344C31.4068 0.885143 29.868 0 28.2076 0H20.8171C19.1568 0 17.6179 0.885143 16.7877 2.31344L1.37898 28.8476C0.548805 30.2759 0.548805 32.0462 1.37898 33.4745L5.08437 39.8314C5.91454 41.2597 7.45339 42.1449 9.13398 42.1449H15.5324C17.1927 42.1449 18.7316 41.2597 19.5617 39.8314L21.5258 36.4518C21.9712 35.6874 22.194 34.8223 22.194 33.9573V27.017C22.194 26.4738 21.5663 26.1519 21.1208 26.4738L10.3894 33.9171C10.1059 34.1384 9.68068 34.0378 9.51869 33.736L8.26331 31.5835C8.06083 31.2415 8.12158 30.8191 8.40505 30.5374L21.2626 18.4472C21.87 17.8437 22.2142 17.0189 22.2142 16.174V10.8028C22.2142 9.71645 22.9836 7.20184 24.0163 6.61845C24.2998 6.45752 24.6642 6.45752 24.9072 6.5581C26.0006 7.00068 26.8308 9.67622 26.8308 10.7826V16.1539C26.8308 16.9988 27.175 17.8236 27.7824 18.4271L39.6883 30.5173C39.9718 30.7989 40.0325 31.2214 39.83 31.5634L38.5746 33.6958C38.3924 33.9975 37.9875 34.078 37.6837 33.8768L27.9039 26.4336C27.4585 26.1117 26.8308 26.4135 26.8308 26.9767V33.9171C26.8308 34.7821 27.0535 35.6471 27.499 36.4116L29.463 39.7912C30.2932 41.2195 31.832 42.1046 33.4924 42.1046H39.8705C41.5309 42.1046 43.09 41.2195 43.9201 39.7912L47.6458 33.4544C48.4759 32.0261 48.4962 30.2558 47.666 28.8275L32.237 2.31344Z" fill="#00AFFF"/>
<path d="M68.3362 32.8814C68.3362 33.4503 68.2367 33.9736 68.0377 34.4513C67.8386 34.9289 67.5614 35.3433 67.2059 35.6945C66.8576 36.0387 66.4417 36.3091 65.9583 36.5058C65.482 36.7025 64.963 36.8008 64.4014 36.8008C63.8398 36.8008 63.3173 36.7025 62.8339 36.5058C62.3576 36.3091 61.9417 36.0387 61.5862 35.6945C61.2379 35.3433 60.9642 34.9289 60.7651 34.4513C60.5661 33.9736 60.4666 33.4503 60.4666 32.8814C60.4666 32.3124 60.5661 31.7891 60.7651 31.3115C60.9642 30.8338 61.2379 30.4229 61.5862 30.0787C61.9417 29.7275 62.3576 29.4536 62.8339 29.2569C63.3173 29.0602 63.8398 28.9619 64.4014 28.9619C64.963 28.9619 65.482 29.0602 65.9583 29.2569C66.4417 29.4536 66.8576 29.7275 67.2059 30.0787C67.5614 30.4229 67.8386 30.8338 68.0377 31.3115C68.2367 31.7891 68.3362 32.3124 68.3362 32.8814ZM67.5258 32.8814C67.5258 32.4459 67.4547 32.0314 67.3125 31.6381C67.1704 31.2447 66.9642 30.9005 66.6941 30.6055C66.4239 30.3035 66.0933 30.0647 65.7023 29.8891C65.3185 29.7135 64.8848 29.6257 64.4014 29.6257C63.918 29.6257 63.4808 29.7135 63.0898 29.8891C62.7059 30.0647 62.3789 30.3035 62.1087 30.6055C61.8386 30.9005 61.6324 31.2447 61.4903 31.6381C61.3481 32.0314 61.277 32.4459 61.277 32.8814C61.277 33.3169 61.3481 33.7313 61.4903 34.1246C61.6324 34.518 61.8386 34.8622 62.1087 35.1572C62.3789 35.4522 62.7059 35.6875 63.0898 35.8631C63.4808 36.0387 63.918 36.1265 64.4014 36.1265C64.8848 36.1265 65.3185 36.0387 65.7023 35.8631C66.0933 35.6875 66.4239 35.4522 66.6941 35.1572C66.9642 34.8622 67.1704 34.518 67.3125 34.1246C67.4547 33.7313 67.5258 33.3169 67.5258 32.8814Z" fill="#333333"/>
<path d="M88.0809 35.5049H88.1023V29.1515H88.87V36.6112H87.9103L83.517 30.1946H83.4956V36.6112H82.7278V29.1515H83.6876L88.0809 35.5049Z" fill="#333333"/>
<path d="M104.435 35.9369H107.954V36.6112H103.668V29.1515H104.435V35.9369Z" fill="#333333"/>
<path d="M122.667 36.6112H121.9V29.1515H122.667V36.6112Z" fill="#333333"/>
<path d="M138.234 36.6112H137.466V29.1515H142.019V29.8259H138.234V32.4178H141.753V33.0815H138.234V36.6112Z" fill="#333333"/>
<path d="M157.018 35.9369H161.059V36.6112H156.25V29.1515H160.931V29.8259H157.018V32.3967H160.675V33.0605H157.018V35.9369Z" fill="#333333"/>
<path d="M70.2989 13.9056C70.2989 15.06 70.0972 16.1182 69.6938 17.0802C69.2905 18.0285 68.7271 18.8462 68.0039 19.5333C67.2945 20.2067 66.4461 20.729 65.4585 21.1C64.471 21.4711 63.4 21.6566 62.2456 21.6566C61.0911 21.6566 60.0201 21.4711 59.0326 21.1C58.059 20.729 57.2105 20.2067 56.4873 19.5333C55.7779 18.8462 55.2215 18.0285 54.8182 17.0802C54.4148 16.1182 54.2131 15.06 54.2131 13.9056C54.2131 12.7375 54.4148 11.6861 54.8182 10.7516C55.2215 9.80336 55.7779 8.9994 56.4873 8.33974C57.2105 7.68008 58.059 7.17159 59.0326 6.81428C60.0201 6.45696 61.0911 6.27831 62.2456 6.27831C63.4 6.27831 64.471 6.45696 65.4585 6.81428C66.4461 7.17159 67.2945 7.68008 68.0039 8.33974C68.7271 8.9994 69.2905 9.80336 69.6938 10.7516C70.0972 11.6861 70.2989 12.7375 70.2989 13.9056ZM66.4808 13.9056C66.4808 13.2734 66.3765 12.6825 66.1679 12.1328C65.9593 11.5831 65.6672 11.1158 65.2916 10.731C64.93 10.3325 64.4849 10.0232 63.9564 9.80336C63.4417 9.56973 62.8715 9.45291 62.2456 9.45291C61.6197 9.45291 61.0494 9.56973 60.5348 9.80336C60.0201 10.0232 59.575 10.3325 59.1995 10.731C58.824 11.1158 58.5319 11.5831 58.3232 12.1328C58.1285 12.6825 58.0311 13.2734 58.0311 13.9056C58.0311 14.5653 58.1355 15.1768 58.3441 15.7403C58.5527 16.29 58.8379 16.7641 59.1995 17.1627C59.575 17.5612 60.0201 17.8773 60.5348 18.1109C61.0494 18.3308 61.6197 18.4408 62.2456 18.4408C62.8715 18.4408 63.4417 18.3308 63.9564 18.1109C64.471 17.8773 64.9161 17.5612 65.2916 17.1627C65.6672 16.7641 65.9593 16.29 66.1679 15.7403C66.3765 15.1768 66.4808 14.5653 66.4808 13.9056Z" fill="#333333"/>
<path d="M83.2881 21.2649L77.3421 11.7205H77.2795L77.3629 21.2649H73.8996V6.66998H77.968L83.8932 16.1938H83.9558L83.8723 6.66998H87.3356V21.2649H83.2881Z" fill="#333333"/>
<path d="M95.1603 9.67967V12.6894H100.877V15.596H95.1603V21.2649H91.6343V6.66998H101.357V9.67967H95.1603Z" fill="#333333"/>
<path d="M104.907 21.2649V6.66998H108.496V18.1934H114.212V21.2649H104.907Z" fill="#333333"/>
<path d="M117.141 21.2649V6.66998H120.729V21.2649H117.141Z" fill="#333333"/>
<path d="M138.158 20.3785C137.434 20.7496 136.586 21.0519 135.612 21.2855C134.653 21.5192 133.603 21.636 132.462 21.636C131.28 21.636 130.188 21.4505 129.186 21.0794C128.199 20.7083 127.343 20.1861 126.62 19.5127C125.911 18.8393 125.354 18.0354 124.951 17.1008C124.548 16.1526 124.346 15.1012 124.346 13.9468C124.346 12.7787 124.548 11.7205 124.951 10.7722C125.368 9.82397 125.939 9.02001 126.662 8.36035C127.385 7.68695 128.234 7.17159 129.207 6.81428C130.181 6.45696 131.231 6.27831 132.358 6.27831C133.526 6.27831 134.611 6.45696 135.612 6.81428C136.614 7.15785 137.427 7.62511 138.053 8.21605L135.8 10.7516C135.452 10.3531 134.993 10.0301 134.423 9.78274C133.853 9.52163 133.206 9.39107 132.483 9.39107C131.857 9.39107 131.28 9.50789 130.751 9.74152C130.223 9.9614 129.764 10.2775 129.374 10.6898C128.985 11.0883 128.679 11.5693 128.456 12.1328C128.248 12.6825 128.143 13.2872 128.143 13.9468C128.143 14.6202 128.241 15.2387 128.435 15.8021C128.63 16.3656 128.915 16.8535 129.291 17.2657C129.68 17.6643 130.153 17.9804 130.709 18.214C131.28 18.4339 131.926 18.5438 132.65 18.5438C133.067 18.5438 133.463 18.5164 133.839 18.4614C134.215 18.3927 134.562 18.2896 134.882 18.1522V15.4929H132.066V12.6481H138.158V20.3785Z" fill="#333333"/>
<path d="M151.647 21.2649V15.1631H145.889V21.2649H142.321V6.66998H145.889V12.1946H151.647V6.66998H155.215V21.2649H151.647Z" fill="#333333"/>
<path d="M165.827 9.67967V21.2649H162.26V9.67967H158.087V6.66998H170V9.67967H165.827Z" fill="#333333"/>
<path d="M68.3365 32.8814C68.3365 33.4503 68.237 33.9736 68.0379 34.4513C67.8389 34.9289 67.5616 35.3433 67.2062 35.6945C66.8578 36.0387 66.4419 36.3091 65.9585 36.5058C65.4822 36.7025 64.9633 36.8008 64.4016 36.8008C63.84 36.8008 63.3175 36.7025 62.8341 36.5058C62.3578 36.3091 61.9419 36.0387 61.5865 35.6945C61.2381 35.3433 60.9644 34.9289 60.7654 34.4513C60.5663 33.9736 60.4668 33.4503 60.4668 32.8814C60.4668 32.3124 60.5663 31.7891 60.7654 31.3115C60.9644 30.8338 61.2381 30.4229 61.5865 30.0787C61.9419 29.7275 62.3578 29.4536 62.8341 29.2569C63.3175 29.0602 63.84 28.9619 64.4016 28.9619C64.9633 28.9619 65.4822 29.0602 65.9585 29.2569C66.4419 29.4536 66.8578 29.7275 67.2062 30.0787C67.5616 30.4229 67.8389 30.8338 68.0379 31.3115C68.237 31.7891 68.3365 32.3124 68.3365 32.8814ZM67.5261 32.8814C67.5261 32.4459 67.455 32.0314 67.3128 31.6381C67.1706 31.2447 66.9644 30.9005 66.6943 30.6055C66.4242 30.3035 66.0936 30.0647 65.7026 29.8891C65.3187 29.7135 64.8851 29.6257 64.4016 29.6257C63.9182 29.6257 63.481 29.7135 63.09 29.8891C62.7061 30.0647 62.3791 30.3035 62.109 30.6055C61.8388 30.9005 61.6327 31.2447 61.4905 31.6381C61.3483 32.0314 61.2772 32.4459 61.2772 32.8814C61.2772 33.3169 61.3483 33.7313 61.4905 34.1246C61.6327 34.518 61.8388 34.8622 62.109 35.1572C62.3791 35.4522 62.7061 35.6875 63.09 35.8631C63.481 36.0387 63.9182 36.1265 64.4016 36.1265C64.8851 36.1265 65.3187 36.0387 65.7026 35.8631C66.0936 35.6875 66.4242 35.4522 66.6943 35.1572C66.9644 34.8622 67.1706 34.518 67.3128 34.1246C67.455 33.7313 67.5261 33.3169 67.5261 32.8814Z" fill="black"/>
<path d="M88.0812 35.5049H88.1025V29.1515H88.8703V36.6112H87.9106L83.5172 30.1946H83.4959V36.6112H82.7281V29.1515H83.6878L88.0812 35.5049Z" fill="black"/>
<path d="M104.436 35.9369H107.955V36.6112H103.668V29.1515H104.436V35.9369Z" fill="black"/>
<path d="M122.668 36.6112H121.9V29.1515H122.668V36.6112Z" fill="black"/>
<path d="M138.234 36.6112H137.466V29.1515H142.02V29.8259H138.234V32.4178H141.753V33.0815H138.234V36.6112Z" fill="black"/>
<path d="M157.018 35.9369H161.06V36.6112H156.25V29.1515H160.932V29.8259H157.018V32.3967H160.676V33.0605H157.018V35.9369Z" fill="black"/>
<path d="M70.2991 13.9056C70.2991 15.06 70.0974 16.1182 69.6941 17.0802C69.2907 18.0285 68.7274 18.8462 68.0041 19.5333C67.2948 20.2067 66.4463 20.729 65.4588 21.1C64.4712 21.4711 63.4003 21.6566 62.2458 21.6566C61.0914 21.6566 60.0204 21.4711 59.0328 21.1C58.0592 20.729 57.2108 20.2067 56.4875 19.5333C55.7781 18.8462 55.2218 18.0285 54.8184 17.0802C54.4151 16.1182 54.2134 15.06 54.2134 13.9056C54.2134 12.7375 54.4151 11.6861 54.8184 10.7516C55.2218 9.80336 55.7781 8.9994 56.4875 8.33974C57.2108 7.68008 58.0592 7.17159 59.0328 6.81428C60.0204 6.45696 61.0914 6.27831 62.2458 6.27831C63.4003 6.27831 64.4712 6.45696 65.4588 6.81428C66.4463 7.17159 67.2948 7.68008 68.0041 8.33974C68.7274 8.9994 69.2907 9.80336 69.6941 10.7516C70.0974 11.6861 70.2991 12.7375 70.2991 13.9056ZM66.4811 13.9056C66.4811 13.2734 66.3768 12.6825 66.1681 12.1328C65.9595 11.5831 65.6674 11.1158 65.2919 10.731C64.9302 10.3325 64.4851 10.0232 63.9566 9.80336C63.442 9.56973 62.8717 9.45291 62.2458 9.45291C61.6199 9.45291 61.0496 9.56973 60.535 9.80336C60.0204 10.0232 59.5753 10.3325 59.1997 10.731C58.8242 11.1158 58.5321 11.5831 58.3235 12.1328C58.1288 12.6825 58.0314 13.2734 58.0314 13.9056C58.0314 14.5653 58.1357 15.1768 58.3443 15.7403C58.553 16.29 58.8381 16.7641 59.1997 17.1627C59.5753 17.5612 60.0204 17.8773 60.535 18.1109C61.0496 18.3308 61.6199 18.4408 62.2458 18.4408C62.8717 18.4408 63.442 18.3308 63.9566 18.1109C64.4712 17.8773 64.9163 17.5612 65.2919 17.1627C65.6674 16.7641 65.9595 16.29 66.1681 15.7403C66.3768 15.1768 66.4811 14.5653 66.4811 13.9056Z" fill="black"/>
<path d="M83.2884 21.2649L77.3423 11.7205H77.2797L77.3632 21.2649H73.8998V6.66998H77.9682L83.8934 16.1938H83.956L83.8726 6.66998H87.3359V21.2649H83.2884Z" fill="black"/>
<path d="M95.1605 9.67967V12.6894H100.877V15.596H95.1605V21.2649H91.6346V6.66998H101.357V9.67967H95.1605Z" fill="black"/>
<path d="M104.907 21.2649V6.66998H108.496V18.1934H114.212V21.2649H104.907Z" fill="black"/>
<path d="M117.141 21.2649V6.66998H120.729V21.2649H117.141Z" fill="black"/>
<path d="M138.158 20.3785C137.435 20.7496 136.586 21.0519 135.613 21.2855C134.653 21.5192 133.603 21.636 132.462 21.636C131.28 21.636 130.188 21.4505 129.187 21.0794C128.199 20.7083 127.344 20.1861 126.62 19.5127C125.911 18.8393 125.355 18.0354 124.951 17.1008C124.548 16.1526 124.346 15.1012 124.346 13.9468C124.346 12.7787 124.548 11.7205 124.951 10.7722C125.369 9.82397 125.939 9.02001 126.662 8.36035C127.385 7.68695 128.234 7.17159 129.208 6.81428C130.181 6.45696 131.231 6.27831 132.358 6.27831C133.526 6.27831 134.611 6.45696 135.613 6.81428C136.614 7.15785 137.428 7.62511 138.054 8.21605L135.8 10.7516C135.453 10.3531 134.994 10.0301 134.423 9.78274C133.853 9.52163 133.206 9.39107 132.483 9.39107C131.857 9.39107 131.28 9.50789 130.751 9.74152C130.223 9.9614 129.764 10.2775 129.374 10.6898C128.985 11.0883 128.679 11.5693 128.456 12.1328C128.248 12.6825 128.143 13.2872 128.143 13.9468C128.143 14.6202 128.241 15.2387 128.436 15.8021C128.63 16.3656 128.915 16.8535 129.291 17.2657C129.68 17.6643 130.153 17.9804 130.71 18.214C131.28 18.4339 131.927 18.5438 132.65 18.5438C133.067 18.5438 133.464 18.5164 133.839 18.4614C134.215 18.3927 134.562 18.2896 134.882 18.1522V15.4929H132.066V12.6481H138.158V20.3785Z" fill="black"/>
<path d="M151.647 21.2649V15.1631H145.889V21.2649H142.321V6.66998H145.889V12.1946H151.647V6.66998H155.215V21.2649H151.647Z" fill="black"/>
<path d="M165.828 9.67967V21.2649H162.26V9.67967H158.087V6.66998H170V9.67967H165.828Z" fill="black"/>
</svg>
