<svg width="199" height="135" viewBox="0 0 199 135" fill="none" xmlns="http://www.w3.org/2000/svg">
<rect y="134.504" width="5.51384" height="5.51384" rx="2" transform="rotate(-90 0 134.504)" fill="white"/>
<rect y="102.257" width="5.51384" height="5.51384" rx="2" transform="rotate(-90 0 102.257)" fill="white"/>
<rect y="70.0091" width="5.51384" height="5.51384" rx="2" transform="rotate(-90 0 70.0091)" fill="white"/>
<rect y="37.7615" width="5.51384" height="5.51384" rx="2" transform="rotate(-90 0 37.7615)" fill="white"/>
<rect y="5.51385" width="5.51384" height="5.51384" rx="2" transform="rotate(-90 0 5.51385)" fill="white"/>
<rect x="32.2478" y="134.504" width="5.51384" height="5.51384" rx="2" transform="rotate(-90 32.2478 134.504)" fill="white"/>
<rect x="32.2478" y="102.257" width="5.51384" height="5.51384" rx="2" transform="rotate(-90 32.2478 102.257)" fill="white"/>
<rect x="32.2478" y="70.0091" width="5.51384" height="5.51384" rx="2" transform="rotate(-90 32.2478 70.0091)" fill="white"/>
<rect x="32.2478" y="37.7615" width="5.51384" height="5.51384" rx="2" transform="rotate(-90 32.2478 37.7615)" fill="white"/>
<rect x="32.2478" y="5.51385" width="5.51384" height="5.51384" rx="2" transform="rotate(-90 32.2478 5.51385)" fill="white"/>
<rect x="64.4954" y="134.504" width="5.51384" height="5.51384" rx="2" transform="rotate(-90 64.4954 134.504)" fill="white"/>
<rect x="64.4954" y="102.257" width="5.51384" height="5.51384" rx="2" transform="rotate(-90 64.4954 102.257)" fill="white"/>
<rect x="64.4954" y="70.0091" width="5.51384" height="5.51384" rx="2" transform="rotate(-90 64.4954 70.0091)" fill="white"/>
<rect x="64.4954" y="37.7615" width="5.51384" height="5.51384" rx="2" transform="rotate(-90 64.4954 37.7615)" fill="white"/>
<rect x="64.4954" y="5.51385" width="5.51384" height="5.51384" rx="2" transform="rotate(-90 64.4954 5.51385)" fill="white"/>
<rect x="96.7432" y="134.504" width="5.51384" height="5.51384" rx="2" transform="rotate(-90 96.7432 134.504)" fill="white"/>
<rect x="96.7432" y="102.257" width="5.51384" height="5.51384" rx="2" transform="rotate(-90 96.7432 102.257)" fill="white"/>
<rect x="96.7432" y="70.0091" width="5.51384" height="5.51384" rx="2" transform="rotate(-90 96.7432 70.0091)" fill="white"/>
<rect x="96.7432" y="37.7615" width="5.51384" height="5.51384" rx="2" transform="rotate(-90 96.7432 37.7615)" fill="white"/>
<rect x="96.7432" y="5.51385" width="5.51384" height="5.51384" rx="2" transform="rotate(-90 96.7432 5.51385)" fill="white"/>
<rect x="128.991" y="134.504" width="5.51384" height="5.51384" rx="2" transform="rotate(-90 128.991 134.504)" fill="white"/>
<rect x="128.991" y="102.257" width="5.51384" height="5.51384" rx="2" transform="rotate(-90 128.991 102.257)" fill="white"/>
<rect x="128.991" y="70.0091" width="5.51384" height="5.51384" rx="2" transform="rotate(-90 128.991 70.0091)" fill="white"/>
<rect x="128.991" y="37.7615" width="5.51384" height="5.51384" rx="2" transform="rotate(-90 128.991 37.7615)" fill="white"/>
<rect x="128.991" y="5.51385" width="5.51384" height="5.51384" rx="2" transform="rotate(-90 128.991 5.51385)" fill="white"/>
<rect x="161.238" y="134.504" width="5.51384" height="5.51384" rx="2" transform="rotate(-90 161.238 134.504)" fill="white"/>
<rect x="161.238" y="102.257" width="5.51384" height="5.51384" rx="2" transform="rotate(-90 161.238 102.257)" fill="white"/>
<rect x="161.238" y="70.0091" width="5.51384" height="5.51384" rx="2" transform="rotate(-90 161.238 70.0091)" fill="white"/>
<rect x="161.238" y="37.7615" width="5.51384" height="5.51384" rx="2" transform="rotate(-90 161.238 37.7615)" fill="white"/>
<rect x="161.238" y="5.51386" width="5.51384" height="5.51384" rx="2" transform="rotate(-90 161.238 5.51386)" fill="white"/>
<rect x="193.486" y="134.504" width="5.51384" height="5.51384" rx="2" transform="rotate(-90 193.486 134.504)" fill="white"/>
<rect x="193.486" y="102.257" width="5.51384" height="5.51384" rx="2" transform="rotate(-90 193.486 102.257)" fill="white"/>
<rect x="193.486" y="70.0091" width="5.51384" height="5.51384" rx="2" transform="rotate(-90 193.486 70.0091)" fill="white"/>
<rect x="193.486" y="37.7615" width="5.51384" height="5.51384" rx="2" transform="rotate(-90 193.486 37.7615)" fill="white"/>
<rect x="193.486" y="5.51386" width="5.51384" height="5.51384" rx="2" transform="rotate(-90 193.486 5.51386)" fill="white"/>
</svg>
