<svg width="72" height="72" viewBox="0 0 72 72" fill="none" xmlns="http://www.w3.org/2000/svg">
<rect width="72" height="72" rx="36" fill="#00AFFF" fill-opacity="0.1"/>
<path d="M31.7573 43.0711C30.3431 47.3137 24.6863 47.3137 24.6863 47.3137C24.6863 47.3137 24.6863 41.6569 28.9289 40.2427" stroke="#00AFFF" stroke-width="2" stroke-linecap="round" stroke-linejoin="round"/>
<path d="M44.4854 33.1715L36.0001 41.6568L30.3433 35.9999L38.8285 27.5147C42.0416 24.3016 45.2546 24.333 46.6248 24.5374C46.8358 24.5689 47.0311 24.6673 47.182 24.8181C47.3328 24.9689 47.4312 25.1642 47.4626 25.3752C47.6671 26.7455 47.6984 29.9585 44.4854 33.1715Z" stroke="#00AFFF" stroke-width="2" stroke-linecap="round" stroke-linejoin="round"/>
<path d="M43.0711 34.5857V42.6568C43.0711 42.7881 43.0452 42.9181 42.9949 43.0394C42.9447 43.1608 42.871 43.271 42.7782 43.3639L38.7355 47.4066C38.6075 47.5346 38.4471 47.6254 38.2716 47.6695C38.096 47.7135 37.9118 47.709 37.7386 47.6566C37.5653 47.6041 37.4096 47.5056 37.2879 47.3716C37.1663 47.2376 37.0833 47.0731 37.0478 46.8956L36 41.6568" stroke="#00AFFF" stroke-width="2" stroke-linecap="round" stroke-linejoin="round"/>
<path d="M37.4141 28.929H29.343C29.2117 28.929 29.0817 28.9548 28.9603 29.0051C28.839 29.0553 28.7288 29.129 28.6359 29.2218L24.5932 33.2646C24.4652 33.3926 24.3744 33.5529 24.3303 33.7284C24.2863 33.904 24.2908 34.0882 24.3432 34.2615C24.3957 34.4347 24.4941 34.5904 24.6282 34.7121C24.7622 34.8338 24.9267 34.9168 25.1042 34.9523L30.343 36" stroke="#00AFFF" stroke-width="2" stroke-linecap="round" stroke-linejoin="round"/>
</svg>
