<svg width="72" height="72" viewBox="0 0 72 72" fill="none" xmlns="http://www.w3.org/2000/svg">
<rect width="72" height="72" rx="36" fill="#00AFFF" fill-opacity="0.1"/>
<path d="M35.9993 40C37.38 40 38.4993 38.8807 38.4993 37.5C38.4993 36.1193 37.38 35 35.9993 35C34.6186 35 33.4993 36.1193 33.4993 37.5C33.4993 38.8807 34.6186 40 35.9993 40Z" stroke="#00AFFF" stroke-width="2" stroke-linecap="round" stroke-linejoin="round"/>
<path d="M35.9993 40V43" stroke="#00AFFF" stroke-width="2" stroke-linecap="round" stroke-linejoin="round"/>
<path d="M45.9993 31H25.9993C25.447 31 24.9993 31.4477 24.9993 32V46C24.9993 46.5523 25.447 47 25.9993 47H45.9993C46.5516 47 46.9993 46.5523 46.9993 46V32C46.9993 31.4477 46.5516 31 45.9993 31Z" stroke="#00AFFF" stroke-width="2" stroke-linecap="round" stroke-linejoin="round"/>
<path d="M31.4993 31V26.5C31.4993 25.3065 31.9734 24.1619 32.8173 23.318C33.6612 22.4741 34.8058 22 35.9993 22C37.1927 22 38.3373 22.4741 39.1812 23.318C40.0252 24.1619 40.4993 25.3065 40.4993 26.5V31" stroke="#00AFFF" stroke-width="2" stroke-linecap="round" stroke-linejoin="round"/>
</svg>
