<svg width="30" height="16" viewBox="0 0 30 16" fill="none" xmlns="http://www.w3.org/2000/svg">
<rect x="0.5" y="0.5" width="29" height="15" fill="white" stroke="#F2F2F2"/>
<rect y="11" width="30" height="5" fill="#EE1C25"/>
<rect y="6" width="30" height="5" fill="#0B4EA2"/>
<path d="M13.1141 3H12.8438H8.9875H5.13438H4.86406L4.8375 3.27031C4.83125 3.32969 4.6875 4.73906 4.6875 7.83438C4.6875 9.29063 5.17813 10.5719 6.15 11.6469C6.82812 12.4016 7.71562 13.0359 8.86094 13.5859L8.99063 13.65L9.12031 13.5859C10.2656 13.0359 11.1547 12.4016 11.8313 11.6469C12.8 10.5719 13.2937 9.28594 13.2937 7.83438C13.2937 4.73906 13.15 3.33125 13.1438 3.27031L13.1141 3Z" fill="white"/>
<path d="M8.9875 13.3156C7.34063 12.5203 4.98438 10.9484 4.98438 7.82967C4.98438 4.71092 5.13438 3.29999 5.13438 3.29999H8.99063H12.8469C12.8469 3.29999 12.9969 4.71561 12.9969 7.82967C12.9906 10.9484 10.6359 12.5203 8.9875 13.3156Z" fill="#EE1C25"/>
<path d="M9.34072 7.01606C9.78759 7.02231 10.6563 7.03949 11.4313 6.78168C11.4313 6.78168 11.411 7.05824 11.411 7.38324C11.411 7.70668 11.4313 7.9848 11.4313 7.9848C10.7204 7.74731 9.84228 7.74106 9.34072 7.74731V9.46605H8.63603V7.74731C8.13134 7.74106 7.25791 7.74731 6.54541 7.9848C6.54541 7.9848 6.56572 7.70824 6.56572 7.38324C6.56572 7.05981 6.54541 6.78168 6.54541 6.78168C7.32041 7.04262 8.19072 7.02231 8.63603 7.01606V5.93481C8.22822 5.93168 7.64385 5.952 6.97978 6.17231C6.97978 6.17231 7.0001 5.89575 7.0001 5.57075C7.0001 5.24575 6.97978 4.96919 6.97978 4.96919C7.64072 5.1895 8.22509 5.20981 8.63291 5.20669C8.61259 4.52231 8.41259 3.66138 8.41259 3.66138C8.41259 3.66138 8.82353 3.69419 8.98759 3.69419C9.15165 3.69419 9.56259 3.66138 9.56259 3.66138C9.56259 3.66138 9.36259 4.52231 9.34228 5.20669C9.75009 5.20981 10.3345 5.1895 10.9954 4.96919C10.9954 4.96919 10.9751 5.24575 10.9751 5.57075C10.9751 5.89575 10.9954 6.17231 10.9954 6.17231C10.3345 5.952 9.74697 5.93168 9.33915 5.93481V7.01606H9.34072Z" fill="white"/>
<path d="M8.9873 9.28024C8.15605 9.28024 7.7123 10.4318 7.7123 10.4318C7.7123 10.4318 7.46543 9.88805 6.7873 9.88805C6.32949 9.88805 5.99199 10.2959 5.77637 10.6724C6.61074 11.9974 7.94043 12.8162 8.98418 13.3193C10.0295 12.8146 11.3607 11.9974 12.192 10.6724C11.9779 10.2959 11.6404 9.88805 11.1811 9.88805C10.5029 9.88805 10.2561 10.4318 10.2561 10.4318C10.2561 10.4318 9.81855 9.28024 8.9873 9.28024Z" fill="#0B4EA2"/>
</svg>
