<svg width="33" height="32" viewBox="0 0 33 32" fill="none" xmlns="http://www.w3.org/2000/svg">
<path d="M11.2324 20C14.8223 20 17.7324 17.0899 17.7324 13.5C17.7324 9.91015 14.8223 7 11.2324 7C7.64257 7 4.73242 9.91015 4.73242 13.5C4.73242 17.0899 7.64257 20 11.2324 20Z" stroke="#00AFFF" stroke-width="2" stroke-miterlimit="10"/>
<path d="M19.6589 7.24215C20.553 6.99026 21.4906 6.93287 22.4087 7.07386C23.3267 7.21486 24.2039 7.55095 24.9812 8.0595C25.7584 8.56805 26.4176 9.23726 26.9145 10.022C27.4113 10.8068 27.7342 11.689 27.8614 12.6091C27.9886 13.5291 27.9171 14.4658 27.6518 15.3559C27.3866 16.2461 26.9336 17.069 26.3235 17.7694C25.7134 18.4697 24.9603 19.0312 24.1149 19.416C23.2695 19.8008 22.3515 19.9999 21.4226 20" stroke="#00AFFF" stroke-width="2" stroke-linecap="round" stroke-linejoin="round"/>
<path d="M2.23193 24.6746C3.2471 23.2306 4.5948 22.052 6.16125 21.2384C7.72769 20.4248 9.4669 20.0001 11.232 20C12.9972 19.9999 14.7364 20.4246 16.3029 21.238C17.8694 22.0515 19.2172 23.23 20.2325 24.6739" stroke="#00AFFF" stroke-width="2" stroke-linecap="round" stroke-linejoin="round"/>
<path d="M21.4226 20C23.1879 19.9987 24.9275 20.4228 26.4942 21.2364C28.0608 22.05 29.4083 23.2291 30.4226 24.6739" stroke="#00AFFF" stroke-width="2" stroke-linecap="round" stroke-linejoin="round"/>
</svg>
